<svg xmlns="http://www.w3.org/2000/svg" xmlns:xlink="http://www.w3.org/1999/xlink" viewBox="0 0 500 500"><defs><clipPath id="freepik--clip-path--inject-1"><path d="M226.78,395s1.17-5.9,5.75-7.17,6.35-2.67,6.35-2.67S237.47,394.27,226.78,395Z" style="fill:#0B0957"></path></clipPath></defs><g id="freepik--Shadow--inject-1"><ellipse id="freepik--path--inject-1" cx="250" cy="415.69" rx="193.89" ry="11.32" style="fill:#f5f5f5"></ellipse></g><g id="freepik--Letters--inject-1"><path d="M95.46,213.35v34.24h59.92v34H95.46V335H57.07V179.33H163.52v34Z" style="fill:#0B0957"></path><path d="M250.22,305.39H192.83l-10.67,30.24H143L202.91,180h37.81l60.1,155.64H260.88ZM239,272.93l-17.45-49.81-17.45,49.81Z" style="fill:#0B0957"></path><path d="M442.65,351.62a45.56,45.56,0,0,1-38,19.56c-22.1,0-36.64-8.67-59.33-35.79-35.67-6.9-60.49-38.47-60.49-79.6,0-46.7,32-80.94,75.42-80.94s75.42,34.24,75.42,80.94c0,35.35-18.42,63.59-46.14,75.15,5.43,6.67,10.08,8.89,15.9,8.89,7.36,0,14.54-3.78,20.55-10.89Zm-82.4-51.37c20.55,0,36.64-17.56,36.64-44.46s-16.09-44.47-36.64-44.47-36.65,17.56-36.65,44.47S339.7,300.25,360.25,300.25Z" style="fill:#0B0957"></path><path d="M352.17,180.19a.5.5,0,0,1-.07-1,62.81,62.81,0,0,1,12.58-.44.5.5,0,0,1,.47.53.53.53,0,0,1-.54.47,61.43,61.43,0,0,0-12.37.43Z" style="fill:#fff"></path><path d="M304.52,209a.47.47,0,0,1-.3-.1.5.5,0,0,1-.1-.7c9.52-12.57,21.95-21.64,35.95-26.21a.49.49,0,0,1,.63.32.51.51,0,0,1-.32.63c-13.8,4.51-26.06,13.45-35.46,25.86A.51.51,0,0,1,304.52,209Z" style="fill:#fff"></path><path d="M93.8,184.75H86.27a.5.5,0,0,1-.5-.5.5.5,0,0,1,.5-.5H93.8a.5.5,0,0,1,.5.5A.5.5,0,0,1,93.8,184.75Z" style="fill:#fff"></path><path d="M62.18,209a.5.5,0,0,1-.5-.5V184.25a.5.5,0,0,1,.5-.5H79.73a.51.51,0,0,1,.5.5.5.5,0,0,1-.5.5H62.68v23.72A.5.5,0,0,1,62.18,209Z" style="fill:#fff"></path><path d="M237.34,184.75h-8.77a.5.5,0,0,1-.5-.5.51.51,0,0,1,.5-.5h8.77a.51.51,0,0,1,.5.5A.5.5,0,0,1,237.34,184.75Z" style="fill:#fff"></path><path d="M195.59,211.82a.39.39,0,0,1-.18,0,.49.49,0,0,1-.29-.64l10.12-27.06a.51.51,0,0,1,.47-.33h14.1a.5.5,0,0,1,.5.5.5.5,0,0,1-.5.5H206.06l-10,26.74A.49.49,0,0,1,195.59,211.82Z" style="fill:#fff"></path></g><g id="freepik--character-4--inject-1"><path d="M370.8,291h5.07a121.61,121.61,0,0,0,.7-21.58c-.69-11.3,1.21-12-2.91-18.88a6.37,6.37,0,0,0-1.91-2.21,2.64,2.64,0,0,0-2.79-.15C368.14,248.67,370.88,275.72,370.8,291Z" style="fill:#263238"></path><g style="opacity:0.1"><path d="M370.8,291h5.07a121.61,121.61,0,0,0,.7-21.58c-.69-11.3,1.21-12-2.91-18.88a6.37,6.37,0,0,0-1.91-2.21,2.64,2.64,0,0,0-2.79-.15C368.14,248.67,370.88,275.72,370.8,291Z"></path></g><polygon points="405.6 344.93 407.9 356.8 413.65 356.66 412.55 344.1 405.6 344.93" style="fill:#ebb376"></polygon><path d="M414.14,356.63a.13.13,0,0,1-.09-.12.12.12,0,0,1,.07-.13c.09,0,2.15-1,3.07-.65a.71.71,0,0,1,.39.35.51.51,0,0,1,0,.58,2.43,2.43,0,0,1-1.69.28A9.89,9.89,0,0,1,414.14,356.63Zm.45-.14c1,.22,2.45.34,2.74,0,0-.05.09-.12,0-.3a.36.36,0,0,0-.24-.21.74.74,0,0,0-.25-.05A6.06,6.06,0,0,0,414.59,356.49Z" style="fill:#0B0957"></path><path d="M414.07,356.62a.19.19,0,0,1-.05-.13,3.85,3.85,0,0,1,1.07-2.09,1,1,0,0,1,.76-.17c.36.07.46.27.46.42.07.64-1.39,1.74-2.09,2h-.06A.14.14,0,0,1,414.07,356.62Zm1.67-2.14a.74.74,0,0,0-.48.12,3.15,3.15,0,0,0-.89,1.66c.73-.35,1.7-1.22,1.7-1.61,0,0,0-.13-.25-.17Z" style="fill:#0B0957"></path><path d="M413.64,355.79l-6.13-.54a.51.51,0,0,0-.52.34l-1.54,4.89a.82.82,0,0,0,.52,1l.17,0c2.22.16,4.19.21,6.94.46,3.25.29,2.39.61,6.2,1,2.3.23,3-2.34,2-2.56-4.41-1-4.76-2.34-6.34-4.09A2,2,0,0,0,413.64,355.79Z" style="fill:#263238"></path><polygon points="407.07 352.51 413.21 351.65 412.55 344.1 405.6 344.93 407.07 352.51" style="opacity:0.1"></polygon><path d="M372.13,284s36.21.08,37.94,10,4.22,55,4.22,55l-8.39,1.24s-5.92-24.94-9.65-50.43c0,0-38.39,3.4-40.4-1.94s-.43-13.38-.43-13.38Z" style="fill:#0B0957"></path><path d="M372.13,284s36.21.08,37.94,10,4.22,55,4.22,55l-8.39,1.24s-5.92-24.94-9.65-50.43c0,0-38.39,3.4-40.4-1.94s-.43-13.38-.43-13.38Z" style="opacity:0.30000000000000004;isolation:isolate"></path><polygon points="405.09 351.37 415.37 349.9 415.22 346.2 404.23 347.51 405.09 351.37" style="fill:#0B0957"></polygon><path d="M388.07,297.32c0,.09,0,.18,0,.27a25.42,25.42,0,0,0-.27-3.64c-1.16-6.65-18.51-9.11-25.63-9.84l-8.65.26s-1.34,6.81.36,11.31S388.07,297.32,388.07,297.32Z" style="opacity:0.4"></path><path d="M373.41,262.38l-2,16.28c.75,1.56,2.49,5.38,1.36,5.36-1.41,0-10.19,6-10.19,6l-15.85-6.33,1.09-4.47c-.32-1.41-1.75-9.74-3-17.07l-.11-.67-1.23-7.85-.44-2.81a0,0,0,0,1,0,0v0c-.13-1.21-.45-2.2-.55-2.86a1,1,0,0,1,0-.46,1.39,1.39,0,0,1,.5-.9l.06-.05.31-.24c5.77-4.17,20.72-.33,25.1.81.61.15,1.81.9,1.8,1.53l.77,2.26,1.63,4.8c.16.47.29.95.41,1.44A15.15,15.15,0,0,1,373.41,262.38Z" style="fill:#263238"></path><polygon points="385.42 345.79 385.81 357.65 391.56 357.5 392.38 344.96 385.42 345.79" style="fill:#ebb376"></polygon><path d="M391.91,357.65a.12.12,0,0,1-.07-.13.15.15,0,0,1,.11-.12c.09,0,2.31-.49,3.13.05a.68.68,0,0,1,.3.42.5.5,0,0,1-.17.56,2.35,2.35,0,0,1-1.71-.1A9.28,9.28,0,0,1,391.91,357.65Zm.47,0c1,.45,2.31.87,2.67.6.05,0,.11-.09.07-.28a.36.36,0,0,0-.19-.26,1.28,1.28,0,0,0-.24-.11A6.19,6.19,0,0,0,392.38,357.61Z" style="fill:#0B0957"></path><path d="M391.85,357.62a.12.12,0,0,1,0-.13c0-.06.63-1.47,1.5-1.81a1,1,0,0,1,.77,0c.34.15.39.36.36.51-.08.64-1.74,1.39-2.47,1.47h-.06A.09.09,0,0,1,391.85,357.62Zm2.09-1.71a.69.69,0,0,0-.49,0,3.17,3.17,0,0,0-1.24,1.42c.79-.18,1.93-.82,2-1.19,0,0,0-.14-.2-.23Z" style="fill:#0B0957"></path><path d="M391.6,356.73l-5.86-1.88a.48.48,0,0,0-.57.22l-2.59,4.43a.81.81,0,0,0,.29,1.12l.15.08c2.13.64,4,1.12,6.67,2,3.1,1,2.2,1.12,5.83,2.34,2.19.73,3.39-1.64,2.5-2.06-4.09-1.91-4.12-3.34-5.28-5.39A2,2,0,0,0,391.6,356.73Z" style="fill:#263238"></path><path d="M362.72,285s32.17,2,33.9,12-3.8,53.59-3.8,53.59l-8.39.57s-1.81-29.52-1.62-48.32c0,0-34.36,2.1-36.37-3.23s-.42-14.06-.42-14.06Z" style="fill:#263238"></path><path d="M362.72,285s32.17,2,33.9,12-3.8,53.59-3.8,53.59l-8.39.57s-1.81-29.52-1.62-48.32c0,0-29.61,3.16-36.64-1.7-7.73-5.34.35-17.43.35-17.43Z" style="fill:#0B0957"></path><path d="M362.72,285s32.17,2,33.9,12-3.8,53.59-3.8,53.59l-8.39.57s-1.81-29.52-1.62-48.32c0,0-29.61,3.16-36.64-1.7-7.73-5.34.35-17.43.35-17.43Z" style="opacity:0.2;isolation:isolate"></path><polygon points="383.49 352.2 393.8 351.54 394.14 347.52 382.81 348.31 383.49 352.2" style="fill:#0B0957"></polygon><path d="M355,234.41c.4,3.27.7,8-1.71,10,2.93,2,2.21,4.74,4.3,7.57.31.41,4.2.17,4.61-.15.08-.06.72.11.77,0,2.82-4.32.35-6.73.35-6.73-1.88.93-1.82-2.36-1-4.82Z" style="fill:#ebb376"></path><path d="M361.81,243.73a9.88,9.88,0,0,1,.5-3.42L361,239.24,357,237C356.06,239.18,359.08,242.83,361.81,243.73Z" style="opacity:0.2;isolation:isolate"></path><path d="M365.88,220.59c5.83,4.85,6.12,9,6.16,11.87a31.36,31.36,0,0,1-1.42,8.46c-3.26-2.27-5.93-5.48-6.66-9.38A14.29,14.29,0,0,1,365.88,220.59Z" style="fill:#263238"></path><path d="M355.21,226.77c-.92,5.34-1.42,7.6.6,10.88,3,5,9.79,5,12.28,0,2.23-4.46,3.41-12.44-1.28-15.75a7.39,7.39,0,0,0-11.6,4.85Z" style="fill:#ebb376"></path><path d="M366.44,231.71a11.94,11.94,0,0,0,.88,3.1,1.88,1.88,0,0,1-1.59-.08Z" style="fill:#ba4d3c"></path><path d="M365.13,236.67a4.62,4.62,0,0,0,.65.08.13.13,0,0,0,0-.25A3.51,3.51,0,0,1,363,235a.13.13,0,0,0-.23.13A3.67,3.67,0,0,0,365.13,236.67Z" style="fill:#263238"></path><path d="M362.71,227.18a.26.26,0,0,0,.3,0,3.08,3.08,0,0,1,2.45-.13.26.26,0,1,0,.18-.48,3.67,3.67,0,0,0-2.92.18.27.27,0,0,0-.07.36A.19.19,0,0,0,362.71,227.18Z" style="fill:#263238"></path><path d="M370,229.17a.26.26,0,0,0,.42-.28,2.56,2.56,0,0,0-1.64-1.7.25.25,0,0,0-.31.18.26.26,0,0,0,.18.32,2.08,2.08,0,0,1,1.28,1.37A.26.26,0,0,0,370,229.17Z" style="fill:#263238"></path><path d="M355.14,247.24s6.07,4.25,8.51.1l0,4-.05,4.83-.8,1.12-1.53-.5-1.79-3.33-.73-1.18Z" style="fill:#263238"></path><path d="M353.63,244s6.71,9.31,8.42,12.21.57-11,.57-11,1-1.07,2.74.53c0,0,1.92,6.18,1.71,6.68s-2.49.71-2.49.71,1.32,1.54,1.06,2.42a5,5,0,0,1-2.71,2.48c-.8.1-6.15-2.55-6.44-3.3s1.37-1.82,1.37-1.82-3.84.15-4.37-1.25-2.55-7.71-2.55-7.71A1.74,1.74,0,0,1,353.63,244Z" style="fill:#0B0957"></path><path d="M353.63,244s6.71,9.31,8.42,12.21.57-11,.57-11,1-1.07,2.74.53c0,0,1.92,6.18,1.71,6.68s-2.49.71-2.49.71,1.32,1.54,1.06,2.42a5,5,0,0,1-2.71,2.48c-.8.1-6.15-2.55-6.44-3.3s1.37-1.82,1.37-1.82-3.84.15-4.37-1.25-2.55-7.71-2.55-7.71A1.74,1.74,0,0,1,353.63,244Z" style="fill:#fff;opacity:0.5"></path><path d="M352.86,230.63a4,4,0,0,0,1.55,2.6c1.12.82,2.18-.06,2.26-1.37s-.39-3-1.71-3.34a1.78,1.78,0,0,0-2.1,2.11Z" style="fill:#ebb376"></path><rect x="383.54" y="232.42" width="7.19" height="16.92" rx="1.73" transform="translate(40.5 -55.33) rotate(8.63)" style="fill:#263238"></rect><path d="M378.75,248.44l2.64-1.57s1.05-3.38,2.15-3.72a30.25,30.25,0,0,1,2.61-1.66c1.38-.66,2.09.3,2.08,2.41s.76,3.34-1.31,4.33-3,1.37-3,1.37l-3.48,2.62Z" style="fill:#ebb376"></path><path d="M356,255.16a55,55,0,0,1-4.85,3.42,20.25,20.25,0,0,1-6.41,2.85l-1.23-7.85a3.77,3.77,0,0,1-.43-.64l0-2.2V250Z" style="opacity:0.2"></path><path d="M381,252.32l-1.22.78c-2.41,1.51-4.53,2.79-6.65,4a77.49,77.49,0,0,1-10.86,4.85c-3.74-1.11-7.52-1.81-11.09-3.32-.2-.09-.41-.17-.61-.27a26.38,26.38,0,0,1-4.83-2.59,10.15,10.15,0,0,1-2.2-2.14,3.77,3.77,0,0,1-.43-.64,6.23,6.23,0,0,1-.71-1.47,5.66,5.66,0,0,1,.15-4.07,4,4,0,0,1,.56-1,1.67,1.67,0,0,1,.12-.16l.19-.08c4.4-2,7.14-.52,9.46,2.72,3.06.92,6,3.12,10.6,3.11a23.2,23.2,0,0,0,7.61-1.23c1.61-.53,3.46-1.25,5.78-2.25l1.7-.74.4.49a14.1,14.1,0,0,1,1.93,3.54A2,2,0,0,1,381,252.32Z" style="fill:#263238"></path><path d="M381,252.32l-1.22.78c-2.41,1.51-4.53,2.79-6.65,4a77.49,77.49,0,0,1-10.86,4.85c-3.74-1.11-7.52-1.81-11.09-3.32-.2-.09-.41-.17-.61-.27a26.38,26.38,0,0,1-4.83-2.59,10.15,10.15,0,0,1-2.2-2.14,3.77,3.77,0,0,1-.43-.64,6.23,6.23,0,0,1-.71-1.47,5.66,5.66,0,0,1,.15-4.07,4,4,0,0,1,.56-1,1.67,1.67,0,0,1,.12-.16l.19-.08c4.4-2,7.14-.52,9.46,2.72,3.06.92,6,3.12,10.6,3.11a23.2,23.2,0,0,0,7.61-1.23c1.61-.53,3.46-1.25,5.78-2.25l1.7-.74.4.49a14.1,14.1,0,0,1,1.93,3.54A2,2,0,0,1,381,252.32Z" style="fill:#fff;opacity:0.1"></path><polygon points="382.07 252.5 380.56 254.36 376.7 248.3 378.63 246.87 382.07 252.5" style="fill:#0B0957"></polygon><polygon points="382.07 252.5 380.56 254.36 376.7 248.3 378.63 246.87 382.07 252.5" style="fill:#fff;opacity:0.5"></polygon><path d="M363.4,219.33c-3.59-2.78-9.49.08-12.08,3.82A10.64,10.64,0,0,0,352,235.8c1.7,1.95,4.27,2.71,6.61,3.8a15.09,15.09,0,0,1,1.38-9.47,15.27,15.27,0,0,1,7-6.67A23.15,23.15,0,0,0,363.4,219.33Z" style="fill:#263238"></path><path d="M363.4,219.33c2.33,2.45,3.69,3.34,4.29,4.44,2,1.42,3.6,6.12,4.35,8.43C372.73,227.79,368.89,219.76,363.4,219.33Z" style="fill:#263238"></path><path d="M368.11,231.29c-.1.43.05.83.33.9s.59-.23.69-.66-.05-.83-.32-.89S368.22,230.86,368.11,231.29Z" style="fill:#263238"></path><path d="M369.64,230.81l-1-.18s0,0,0,0,0,.31,0,.46A.9.9,0,0,0,369.64,230.81Z" style="fill:#263238"></path><path d="M363.27,230.15c-.1.43.05.83.33.89s.59-.22.69-.65,0-.83-.33-.9S363.37,229.72,363.27,230.15Z" style="fill:#263238"></path><path d="M364.86,229.66l-1-.18s0,0,0,0l0,.46A.89.89,0,0,0,364.86,229.66Z" style="fill:#263238"></path></g><g id="freepik--character-2--inject-1"><g id="freepik--group--inject-1"><polygon points="195.29 184.48 191.41 187.38 184.71 179.98 179.84 174.6 179.83 174.6 179.83 174.59 184.86 171.31 189.33 176.96 195.29 184.48" style="fill:#cb7a63"></polygon><path d="M194.58,183.29l-3.91,4a.49.49,0,0,0-.06.62l3.1,4.22a.93.93,0,0,0,1.32.15l.07-.06c7.62-6,9.55-9,10.28-9.83,2.1-2.28,0-3.62-.85-3.07-4,2.5-5.89,3.14-7.92,3.3A4.47,4.47,0,0,0,194.58,183.29Z" style="fill:#263238"></path><polygon points="183.99 181.72 191.55 176.35 190.4 173.54 181.72 179.26 183.99 181.72" style="fill:#0B0957"></polygon><polygon points="183.99 181.72 191.55 176.35 190.4 173.54 181.72 179.26 183.99 181.72" style="fill:#fff;opacity:0.5"></polygon><path d="M198.28,180.34c-.33,0-.73.47-1.09,1-.17.25-.34.51-.48.75s-.22.37-.3.53-.21.4-.23.45a.13.13,0,0,0,0,.16.1.1,0,0,0,0,0,.14.14,0,0,0,.11,0,10,10,0,0,0,1.62-.92,2.24,2.24,0,0,0,.67-.63l0,0a2.16,2.16,0,0,0,.24-.48.76.76,0,0,0-.2-.69A.42.42,0,0,0,198.28,180.34Zm.2.33a.49.49,0,0,1,.14.47,1,1,0,0,1-.25.45,2.63,2.63,0,0,1-.54.49,7.87,7.87,0,0,1-1,.61l-.25.13a7.74,7.74,0,0,1,.88-1.43c.19-.23.38-.46.59-.67a.53.53,0,0,1,.24-.11A.19.19,0,0,1,198.48,180.67Z" style="fill:#0B0957"></path><path d="M195.2,180.36a1,1,0,0,0-.24.77.79.79,0,0,0,0,.25,4,4,0,0,0,1.25,1.74l0,0a.14.14,0,0,0,.14,0,.13.13,0,0,0,.07,0,.08.08,0,0,0,0-.06,2.07,2.07,0,0,0,0-.46,4.44,4.44,0,0,0-.06-.87c-.09-.7-.32-1.39-.66-1.56C195.68,180.09,195.46,180.07,195.2,180.36Zm.5,0c.23.11.41.65.51,1.25a5.25,5.25,0,0,1,.06,1.1,4,4,0,0,1-1-1.31,1.13,1.13,0,0,1-.09-.35.77.77,0,0,1,.13-.49l0-.06C195.58,180.35,195.67,180.4,195.7,180.41Z" style="fill:#0B0957"></path><path d="M188.48,175.91l-1.5,1-.9.59-2.61,1.72-.5.33s-11.12-7.7-15.89-13c-3.26-3.64-3.44-4.86-3.87-4.62-5.68,3.28-20.17,14.61-35.71,16.32l-.86,0a26.1,26.1,0,0,1-11-2.68c.46-3.77,4.81-12.16,5.18-13l40-14.63c.21-.08.44-.13.66-.19s.57-.17.86-.23a10.63,10.63,0,0,1,3.27-.31,4.11,4.11,0,0,1,2.65.77C171.52,151.17,188.48,175.91,188.48,175.91Z" style="fill:#263238"></path><g style="opacity:0.2"><path d="M188.48,175.91l-1.5,1-.9.59-2.61,1.72-.5.33s-11.12-7.7-15.89-13c-3.26-3.64-3.44-4.86-3.87-4.62-5.68,3.28-20.17,14.61-35.71,16.32l-.86,0a26.1,26.1,0,0,1-11-2.68c.46-3.77,4.81-12.16,5.18-13l40-14.63c.21-.08.44-.13.66-.19s.57-.17.86-.23a10.63,10.63,0,0,1,3.27-.31,4.11,4.11,0,0,1,2.65.77C171.52,151.17,188.48,175.91,188.48,175.91Z"></path></g><path d="M112.56,107.46c.79,3.71,1.62,9.13-1,11.66a83.3,83.3,0,0,0,11.2,15.5c5.65-9.67.4-15.7.4-15.7-4.18-.92-4.1-2.6-3.43-5.5Z" style="fill:#cb7a63"></path><path d="M109,119.57a4.7,4.7,0,0,1,1.83-2.46c.84-.63,9.51-.67,11.76.08a5.67,5.67,0,0,1,3.13,2.5Z" style="fill:#0B0957"></path><polygon points="196.15 184.86 200.02 181.68 188.77 167.35 183.19 170.59 196.15 184.86" style="fill:#cb7a63"></polygon><path d="M202.23,175.26c-.52.16-1,1.24-1.37,2.12-.09.22-.16.42-.22.6h0l0,.1c-.07.21-.12.36-.13.42a.12.12,0,0,0,0,.16.14.14,0,0,0,.17,0,10.53,10.53,0,0,0,1.3-1l.27-.25a2.27,2.27,0,0,0,.66-1,1.85,1.85,0,0,0,.12-.4.8.8,0,0,0-.32-.7A.56.56,0,0,0,202.23,175.26Zm.28.33a.5.5,0,0,1,.22.47,1.64,1.64,0,0,1-.46.9,7.59,7.59,0,0,1-.9.86l-.48.37A1.69,1.69,0,0,1,201,178a1.09,1.09,0,0,1,.05-.17,7.68,7.68,0,0,1,1.07-2.07.53.53,0,0,1,.23-.16A.19.19,0,0,1,202.51,175.59Z" style="fill:#0B0957"></path><path d="M199.05,175.23a1.11,1.11,0,0,0-.14.85,4,4,0,0,0,1.73,1.9s0,0,0,0,0,0,0,0a.19.19,0,0,0,.15,0l.07-.06a.07.07,0,0,0,0-.06v0a2,2,0,0,0,0-.47c-.13-.93-.62-2.29-1.19-2.46C199.5,174.87,199.27,174.88,199.05,175.23Zm1.54,2.36A3.44,3.44,0,0,1,199.2,176a.78.78,0,0,1,.06-.54l0-.08c.15-.23.25-.2.28-.19C200,175.33,200.51,176.7,200.59,177.59Z" style="fill:#0B0957"></path><path d="M195.42,175.53l-4.77,5.18s-20.3-17.35-22.23-22.6c-1.28,1.5-19.53,20.44-42.25,23.34-.28,0-.56.06-.85.08a25.82,25.82,0,0,1-11.22-1.19c-7.24-2.7-9.22-9.09-8.69-14.52v0c.06-2.53.59-7.06.59-7.06l26.48.21c7.32-4.89,28.82-12.62,31.18-13.17.53-.12,1.05-.23,1.56-.3a14.47,14.47,0,0,1,1.58-.14h0a9.23,9.23,0,0,1,8.89,4.86Z" style="fill:#263238"></path><polygon points="189.77 181.49 196.84 174.46 195.12 171.69 186.93 179.28 189.77 181.49" style="fill:#0B0957"></polygon><polygon points="189.77 181.49 196.84 174.46 195.12 171.69 186.93 179.28 189.77 181.49" style="fill:#fff;opacity:0.5"></polygon><path d="M198.68,179l-3.87,5.12a.5.5,0,0,0,0,.66l3.89,4.07a1,1,0,0,0,1.42,0,.6.6,0,0,0,.08-.08c7.28-7.43,8.91-10.94,9.58-11.9,1.92-2.72-.47-3.85-1.33-3.14-3.88,3.21-5.49,3.67-7.63,4.11A5.09,5.09,0,0,0,198.68,179Z" style="fill:#263238"></path><polygon points="178.41 145.64 162.3 150.23 133.01 149.49 148.13 145.53 178.41 145.64" style="fill:#0B0957"></polygon><g id="freepik--monitor-screen--inject-1"><g id="freepik--PC--inject-1"><polygon points="178.23 144.21 148.94 144.35 150.47 125.78 179.76 125.63 178.23 144.21" style="fill:#0B0957"></polygon><path d="M177.83,145.66,149,145.8a1.33,1.33,0,0,1-1.36-1.47l1.52-18.46a1.65,1.65,0,0,1,1.61-1.49l28.86-.14a1.33,1.33,0,0,1,1.36,1.47l-1.52,18.46A1.65,1.65,0,0,1,177.83,145.66Z" style="fill:#263238"></path><polygon points="178.23 144.21 148.94 144.35 150.47 125.78 179.76 125.63 178.23 144.21" style="fill:#0B0957"></polygon><polygon points="178.23 144.21 148.94 144.35 150.47 125.78 179.76 125.63 178.23 144.21" style="fill:#fff;opacity:0.9"></polygon><polygon points="154.75 124.34 149.13 145.76 151.06 145.75 156.61 124.33 154.75 124.34" style="fill:#fff;opacity:0.1;isolation:isolate"></polygon><polygon points="157.72 124.32 152.1 145.75 155.92 145.73 161.47 124.31 157.72 124.32" style="fill:#fff;opacity:0.1;isolation:isolate"></polygon></g></g><polygon points="178.41 145.64 162.3 150.23 133.01 149.49 148.13 145.53 178.41 145.64" style="fill:#fff;opacity:0.2"></polygon><polygon points="133.01 149.49 134.63 150.93 161.33 151.68 162.3 150.23 133.01 149.49" style="fill:#0B0957"></polygon><polygon points="161.33 151.68 178.14 146.83 178.41 145.64 162.3 150.23 161.33 151.68" style="fill:#0B0957"></polygon><path d="M145,140.44h3.11l-1.78,4.26a8.78,8.78,0,0,1-3.19.34,1.88,1.88,0,0,1-1.22-3h0A4,4,0,0,1,145,140.44Z" style="fill:#cb7a63"></path><path d="M150.81,143.11l-.83,1.48a1.2,1.2,0,0,1-1.29.59l-2.43-.5,1.78-4.26,2.22,1a1.18,1.18,0,0,1,.6,1.55A.93.93,0,0,1,150.81,143.11Z" style="fill:#cb7a63"></path><path d="M116.06,138.53a19.37,19.37,0,0,0,9.73,6.52c4.68,1.23,13.78.81,18.21-.21l0-3.45c-1.81-.39-18.25,1.14-24.13-9-1.1-1.88-5.3-9.49-7.59-10.4-3.72-1.49-5.13,2.47-4.28,4.76C109,129.48,114.11,136.15,116.06,138.53Z" style="fill:#cb7a63"></path><g style="opacity:0.2;isolation:isolate"><polygon points="148.74 140.77 148.72 140.77 148.73 140.76 148.74 140.77"></polygon></g><path d="M133,125.72c5,11.17-6.76,14.28-1.51,32.58l-25.49.44c.23-9.79,3.7-7.66-.77-26.1a17.82,17.82,0,0,1,.69-10.1,7.43,7.43,0,0,1,3.34-3.72c1.88-1,10.17-.15,13.95.12C127.31,118.39,132.26,124.32,133,125.72Z" style="fill:#0B0957"></path><path d="M133,125.72c5,11.17-6.76,14.28-1.51,32.58l-25.49.44c.23-9.79,3.7-7.66-.77-26.1a17.82,17.82,0,0,1,.69-10.1,7.43,7.43,0,0,1,3.34-3.72c1.88-1,10.17-.15,13.95.12C127.31,118.39,132.26,124.32,133,125.72Z" style="fill:#0B0957"></path><path d="M128.27,103.58c-.07.49.12.89.43.93s.61-.29.68-.76-.12-.89-.42-.93S128.34,103.12,128.27,103.58Z" style="fill:#263238"></path><path d="M128.82,102.82l1.17-.15S129.28,103.46,128.82,102.82Z" style="fill:#263238"></path><path d="M128.35,104.22a12,12,0,0,0,1.22,3.23,2,2,0,0,1-1.72.06Z" style="fill:#a02724"></path><path d="M130,100.32a.28.28,0,0,0,.17-.22.28.28,0,0,0-.23-.32,2.75,2.75,0,0,0-2.42.75.28.28,0,1,0,.37.41s0,0,0,0a2.2,2.2,0,0,1,1.93-.57A.23.23,0,0,0,130,100.32Z" style="fill:#263238"></path><path d="M112.87,99.62c-.51,5.8-.86,8.25,1.59,11.64,3.69,5.1,10.94,4.48,13.18-1.05,2-5,2.53-13.63-2.74-16.77a8,8,0,0,0-12,6.18Z" style="fill:#cb7a63"></path><path d="M127.77,109.86a3.34,3.34,0,0,1-1-1.43.12.12,0,0,1,.08-.15.13.13,0,0,1,.15.09,3.15,3.15,0,0,0,.81,1.24Z" style="fill:#263238"></path><path d="M115.79,111a2.46,2.46,0,0,0-1.46,2.42l1.24-1.74Z" style="fill:#263238"></path><path d="M115.86,111.07a2.44,2.44,0,0,0-.46,2.79l.51-2.09Z" style="fill:#263238"></path><path d="M128.72,93.77c-.25-1.1-2.08-.82-3.17-1.07a2.23,2.23,0,0,0-1.61,0,1.52,1.52,0,0,0-.64,1.38,4.91,4.91,0,0,0,.42,1.53,50.83,50.83,0,0,1,1.56,6,13.88,13.88,0,0,1,.15,4.33C126.11,105.69,130.15,100.1,128.72,93.77Z" style="fill:#263238"></path><path d="M125.69,93a14,14,0,0,0-11.43-1.5,11.21,11.21,0,0,0-7.53,8.45,13.36,13.36,0,0,0,1.14,7.38,39.17,39.17,0,0,0,3.84,6.51c-.2,2.42-2.28,4.38-3.7,6.35a11.58,11.58,0,0,0-2.4,7.12,7,7,0,0,0,3.9,6.12c.91.39.74,2.09.2,2.92A1.35,1.35,0,0,0,111,135c-.22.52-.47,1.32-.69,1.84a.82.82,0,0,1,.69-.37,4.35,4.35,0,0,0,.81,0,2.17,2.17,0,0,0,1.18-1.11,8.91,8.91,0,0,0,1.76-4.44,3.49,3.49,0,0,0-.66-2.17c.37-.36.9-.2,1.32.1a2.39,2.39,0,0,1,.8,1.29,5.87,5.87,0,0,1,.24,2c2-2.84,2.07-7.35.61-10.48-.48-1.05-1.18-2.19-.79-3.28.46-1.3,0-2.87.94-3.89,2.3-.17,3.77-2.32,4.88-4.35A31.7,31.7,0,0,0,125.69,93Z" style="fill:#263238"></path><path d="M120.38,103.63a5.08,5.08,0,0,0,1.29,3.66c1.2,1.32,2.74.47,3.2-1.16.41-1.46.27-3.91-1.31-4.62A2.27,2.27,0,0,0,120.38,103.63Z" style="fill:#cb7a63"></path><path d="M105.78,156.8l-.6,2.3c-.09.19.13.36.42.35l26.25-.45c.23,0,.42-.12.43-.26l-.64-2.43c0-.16-.19-.29-.44-.28l-25,.57A.48.48,0,0,0,105.78,156.8Z" style="fill:#fff"></path><path d="M129.12,159.26l-.69.07c-.14,0-.25,0-.25-.13v-3c0-.09.12-.17.25-.19l.69-.07c.14,0,.25,0,.25.13v3C129.36,159.17,129.25,159.25,129.12,159.26Z" style="fill:#0B0957"></path><path d="M119.72,159.32l-.69.07c-.13,0-.24,0-.25-.13l0-3c0-.09.11-.17.25-.19l.68-.07c.14,0,.25,0,.25.13v3C120,159.24,119.86,159.31,119.72,159.32Z" style="fill:#0B0957"></path><path d="M119.72,159.32l-.69.07c-.13,0-.24,0-.25-.13l0-3c0-.09.11-.17.25-.19l.68-.07c.14,0,.25,0,.25.13v3C120,159.24,119.86,159.31,119.72,159.32Z" style="fill:#0B0957"></path><path d="M122,126.19s-1.39,2.79,2.53,10.23l1.64,3h0c.54,1,4.2-1,5.3-2.87h0S124.54,132.36,122,126.19Z" style="opacity:0.2"></path><path d="M158.85,140.59l2.88.15-1.83,3.89s-4.5,1.16-5-1.61l1-1.13A3.72,3.72,0,0,1,158.85,140.59Z" style="fill:#cb7a63"></path><path d="M164.18,143.38l-.84,1.34a1.13,1.13,0,0,1-1.23.49l-2.23-.59,1.84-3.89,2,1.08a1.09,1.09,0,0,1,.49,1.48Z" style="fill:#cb7a63"></path><path d="M132.54,142.19c1.91,2.63,4.57,5.09,7.8,5.48,2.5.31,14.37-1.54,16.11-3.18V141.7s-12.41.06-14-.11c-2.32-.23-3.78-1.82-5.74-5.22-1-1.69-4.14-8.64-5.34-10.19-1.92-2.49-7.45-.75-5.3,5.22C127,133.91,131,140,132.54,142.19Z" style="fill:#cb7a63"></path><path d="M130.6,122.06c3.9,3.62,5.76,10,5.76,10l-9.18,5.52s-6.63-9.43-5.41-12.69c1-2.53,2.71-4.18,5-4.31A5.24,5.24,0,0,1,130.6,122.06Z" style="fill:#0B0957"></path><path d="M109.39,159.62h-.69c-.14,0-.25-.07-.24-.16l.27-3c0-.09.13-.17.27-.17h.69c.14,0,.25.07.24.15l-.28,3A.23.23,0,0,1,109.39,159.62Z" style="fill:#0B0957"></path></g></g><g id="freepik--speech-bubble--inject-1"><g id="freepik--freepik-speech-bubbles-inject-120--inject-1"><path d="M256.15,138.65l71.89-.43a3.78,3.78,0,0,1,3.93,3.63,4.24,4.24,0,0,1,0,.62l-3.53,33.06a5,5,0,0,1-4.81,4.31l-29.91.33a32.46,32.46,0,0,1-18.95,11.06s6.89-6.31,8.51-11l-31.54,0a3.78,3.78,0,0,1-3.92-3.63,4.24,4.24,0,0,1,0-.62L251.34,143A5,5,0,0,1,256.15,138.65Z" style="fill:#fff"></path><path d="M273.23,192l1.18-1.09c.07-.05,6.18-5.69,8.12-10.13l-30.8,0a4.2,4.2,0,0,1-3.06-1.13,4.31,4.31,0,0,1-1.34-3.69l3.51-33a5.46,5.46,0,0,1,5.3-4.76h0l71.89-.43a4.27,4.27,0,0,1,4.43,4.11,4.22,4.22,0,0,1,0,.71l-3.52,33.05a5.45,5.45,0,0,1-5.3,4.75l-29.68.32a33.34,33.34,0,0,1-19.12,11.07ZM284,179.73l-.23.67c-1.23,3.55-5.29,7.91-7.38,10a32.14,32.14,0,0,0,17-10.54l.15-.18,30.14-.33a4.46,4.46,0,0,0,4.33-3.87l3.52-33.05a3.41,3.41,0,0,0,0-.55,3.28,3.28,0,0,0-3.41-3.15l-71.9.43a4.47,4.47,0,0,0-4.33,3.88l-3.51,33a5.21,5.21,0,0,0,0,.55,3.3,3.3,0,0,0,3.42,3.15Z" style="fill:#0B0957"></path></g><rect x="266.33" y="145.38" width="32.42" height="1" style="fill:#0B0957"></rect><rect x="256.82" y="154.02" width="17.76" height="1" style="fill:#0B0957"></rect><rect x="280.91" y="154.02" width="18.09" height="1" style="fill:#0B0957"></rect><rect x="255.82" y="162.67" width="45.13" height="1" style="fill:#0B0957"></rect><rect x="255.1" y="171.32" width="11.72" height="1" style="fill:#0B0957"></rect><text transform="matrix(0.99, 0, -0.17, 0.99, 297.73, 175.15)" style="font-size:46.76708984375px;fill:#0B0957;font-family:Montserrat-ExtraBold, Montserrat;font-weight:800;letter-spacing:-0.005002905170894549em">?</text></g></svg>