<svg width="438" height="503" viewBox="0 0 438 503" fill="none" xmlns="http://www.w3.org/2000/svg">
<path d="M219 503C312.804 503 388.848 498.098 388.848 492.052C388.848 486.005 312.804 481.104 219 481.104C125.196 481.104 49.1523 486.005 49.1523 492.052C49.1523 498.098 125.196 503 219 503Z" fill="#F5F5F5"/>
<path d="M114.196 277.366C113.425 279.3 112.575 281.39 111.831 283.43C111.086 285.471 110.315 287.57 109.641 289.659C108.257 293.731 107.147 297.911 106.321 302.164L106.067 303.711L105.979 304.291C105.979 304.456 105.979 304.669 105.926 304.862C105.893 305.804 105.911 306.747 105.979 307.686C106.145 309.727 106.443 311.912 106.855 314.098C107.591 318.479 108.528 322.996 109.483 327.445L104.989 329.379C102.894 325.163 101.11 320.768 99.6543 316.236C98.8873 313.877 98.2668 311.463 97.7972 309.011C97.5341 307.654 97.3701 306.277 97.3066 304.891C97.3066 304.504 97.3066 304.137 97.3066 303.721C97.3066 303.305 97.3066 302.841 97.368 302.57L97.5432 300.636C97.8049 298.144 98.2057 295.674 98.7433 293.237C99.2338 290.819 99.8646 288.469 100.495 286.148C101.126 283.827 101.914 281.544 102.747 279.3C103.158 278.179 103.623 277.066 104.026 275.954C104.429 274.842 104.902 273.778 105.462 272.589L114.196 277.366Z" fill="#E4897B"/>
<path d="M109.247 326.139L112.663 329.824L105.208 333.692C105.208 333.692 103.404 330.201 104.656 327.048L109.247 326.139Z" fill="#E4897B"/>
<path d="M115.423 335.308L109.125 338.151L105.218 333.654L112.664 329.824L115.423 335.308Z" fill="#E4897B"/>
<path opacity="0.4" d="M243.012 331.342C230.618 329.806 218.914 324.247 209.38 315.368C199.847 306.489 192.912 294.688 189.453 281.459C185.993 268.229 186.164 254.164 189.943 241.041C193.723 227.918 200.942 216.328 210.687 207.734C220.433 199.14 232.267 193.929 244.695 192.76C257.122 191.591 269.585 194.516 280.506 201.166C291.428 207.815 300.319 217.891 306.055 230.118C311.792 242.345 314.115 256.176 312.733 269.861C311.814 278.954 309.282 287.757 305.281 295.769C301.279 303.78 295.887 310.842 289.412 316.552C282.937 322.262 275.506 326.507 267.545 329.045C259.583 331.582 251.247 332.363 243.012 331.342Z" fill="#FAFAFA"/>
<path opacity="0.4" d="M288.897 207.278L192.975 291.893C192.572 290.926 192.178 289.958 191.81 288.991C189.405 282.676 187.867 276 187.246 269.184L270.098 196.097C276.9 198.602 283.26 202.385 288.897 207.278Z" fill="#FAFAFA"/>
<path opacity="0.4" d="M311.033 244.348L220.849 323.895C212.281 318.964 204.857 311.922 199.15 303.315L297.622 216.446C303.969 224.49 308.558 234.036 311.033 244.348Z" fill="#FAFAFA"/>
<path d="M179.046 235.528L178.214 235.218C179.655 230.523 181.467 225.976 183.628 221.63L184.39 222.094C182.257 226.392 180.469 230.887 179.046 235.528ZM189.681 212.955L188.971 212.384C196.17 201.637 205.592 192.946 216.451 187.035L216.845 187.906C206.11 193.755 196.796 202.354 189.681 212.984V212.955ZM285.682 189.231C282.819 187.536 279.857 186.053 276.816 184.792L277.132 183.882C280.203 185.173 283.193 186.685 286.084 188.409L285.682 189.231Z" fill="#0B0957"/>
<path opacity="0.3" d="M179.046 235.528L178.214 235.218C179.655 230.523 181.467 225.976 183.628 221.63L184.39 222.094C182.257 226.392 180.469 230.887 179.046 235.528ZM189.681 212.955L188.971 212.384C196.17 201.637 205.592 192.946 216.451 187.035L216.845 187.906C206.11 193.755 196.796 202.354 189.681 212.984V212.955ZM285.682 189.231C282.819 187.536 279.857 186.053 276.816 184.792L277.132 183.882C280.203 185.173 283.193 186.685 286.084 188.409L285.682 189.231Z" fill="black"/>
<path d="M315.246 226.572C307.135 207.998 292.86 193.583 275.382 186.315C257.905 179.047 238.563 179.483 221.369 187.532C204.174 195.582 190.445 210.629 183.027 229.552C175.608 248.476 175.071 269.825 181.525 289.175C175.673 291.438 169.892 293.866 164.145 296.371C155.858 300.001 147.647 303.792 139.512 307.744C131.383 311.719 123.288 315.771 115.273 320.007C111.252 322.087 107.284 324.282 103.28 326.41C101.198 327.398 99.311 328.827 97.7266 330.617C96.8693 331.608 96.1142 332.701 95.4753 333.876C94.6958 335.266 94.1055 336.775 93.7233 338.354C93.0642 341.2 93.3492 344.213 94.5269 346.847C95.7046 349.481 97.6972 351.563 100.144 352.716C101.503 353.345 102.937 353.756 104.402 353.935C105.639 354.089 106.888 354.089 108.125 353.935C110.373 353.633 112.545 352.848 114.52 351.623C118.488 349.408 122.482 347.271 126.424 344.998C134.308 340.559 142.192 335.927 149.98 331.226C157.768 326.526 165.564 321.603 173.168 316.555C178.424 313.044 183.732 309.456 188.936 305.703C198.928 323.118 214.605 335.622 232.72 340.623C250.834 345.624 269.997 342.739 286.237 332.566C302.477 322.393 314.55 305.712 319.954 285.979C325.358 266.246 323.679 244.975 315.264 226.572H315.246ZM275.423 318.963C265.243 324.511 253.801 326.601 242.545 324.97C231.288 323.339 220.723 318.059 212.184 309.799C203.645 301.539 197.517 290.669 194.574 278.563C191.63 266.458 192.004 253.66 195.648 241.79C199.293 229.919 206.043 219.507 215.046 211.872C224.05 204.237 234.901 199.72 246.23 198.894C257.558 198.067 268.854 200.968 278.689 207.228C288.524 213.489 296.457 222.829 301.484 234.067C304.823 241.531 306.797 249.647 307.295 257.953C307.792 266.259 306.802 274.592 304.382 282.475C301.962 290.359 298.159 297.639 293.19 303.899C288.221 310.16 282.184 315.279 275.423 318.963Z" fill="#0B0957"/>
<path opacity="0.3" d="M315.246 226.572C307.135 207.998 292.86 193.583 275.382 186.315C257.905 179.047 238.563 179.483 221.369 187.532C204.174 195.582 190.445 210.629 183.027 229.552C175.608 248.476 175.071 269.825 181.525 289.175C175.673 291.438 169.892 293.866 164.145 296.371C155.858 300.001 147.647 303.792 139.512 307.744C131.383 311.719 123.288 315.771 115.273 320.007C111.252 322.087 107.284 324.282 103.28 326.41C101.198 327.398 99.311 328.827 97.7266 330.617C96.8693 331.608 96.1142 332.701 95.4753 333.876C94.6958 335.266 94.1055 336.775 93.7233 338.354C93.0642 341.2 93.3492 344.213 94.5269 346.847C95.7046 349.481 97.6972 351.563 100.144 352.716C101.503 353.345 102.937 353.756 104.402 353.935C105.639 354.089 106.888 354.089 108.125 353.935C110.373 353.633 112.545 352.848 114.52 351.623C118.488 349.408 122.482 347.271 126.424 344.998C134.308 340.559 142.192 335.927 149.98 331.226C157.768 326.526 165.564 321.603 173.168 316.555C178.424 313.044 183.732 309.456 188.936 305.703C198.928 323.118 214.605 335.622 232.72 340.623C250.834 345.624 269.997 342.739 286.237 332.566C302.477 322.393 314.55 305.712 319.954 285.979C325.358 266.246 323.679 244.975 315.264 226.572H315.246ZM275.423 318.963C265.243 324.511 253.801 326.601 242.545 324.97C231.288 323.339 220.723 318.059 212.184 309.799C203.645 301.539 197.517 290.669 194.574 278.563C191.63 266.458 192.004 253.66 195.648 241.79C199.293 229.919 206.043 219.507 215.046 211.872C224.05 204.237 234.901 199.72 246.23 198.894C257.558 198.067 268.854 200.968 278.689 207.228C288.524 213.489 296.457 222.829 301.484 234.067C304.823 241.531 306.797 249.647 307.295 257.953C307.792 266.259 306.802 274.592 304.382 282.475C301.962 290.359 298.159 297.639 293.19 303.899C288.221 310.16 282.184 315.279 275.423 318.963Z" fill="black"/>
<path d="M138.408 242.83C138.408 243.4 138.68 243.864 139.021 243.864C139.363 243.864 139.635 243.4 139.635 242.83C139.635 242.259 139.363 241.795 139.021 241.795C138.68 241.795 138.408 242.298 138.408 242.83Z" fill="#263238"/>
<path d="M138.654 243.865C139.274 245.616 140.108 247.266 141.133 248.768C140.779 249.048 140.373 249.239 139.945 249.327C139.517 249.416 139.076 249.4 138.654 249.28V243.865Z" fill="#DE5753"/>
<path d="M136.595 239.648C136.546 239.648 136.498 239.636 136.454 239.612C136.41 239.589 136.371 239.555 136.341 239.512C136.295 239.438 136.277 239.348 136.29 239.26C136.303 239.172 136.347 239.092 136.411 239.038C136.797 238.715 137.248 238.5 137.725 238.411C138.203 238.322 138.692 238.361 139.153 238.526C139.194 238.538 139.233 238.56 139.266 238.59C139.299 238.62 139.327 238.657 139.346 238.699C139.365 238.742 139.376 238.788 139.379 238.835C139.381 238.883 139.374 238.93 139.359 238.974C139.343 239.018 139.32 239.058 139.289 239.092C139.259 239.125 139.223 239.151 139.183 239.168C139.143 239.185 139.1 239.193 139.057 239.191C139.014 239.188 138.972 239.176 138.934 239.154C138.568 239.031 138.181 239.005 137.804 239.081C137.428 239.157 137.073 239.331 136.77 239.59C136.718 239.628 136.657 239.648 136.595 239.648Z" fill="#263238"/>
<path d="M120.713 247.133C121.589 252.327 122.553 261.853 119.259 265.325C119.259 265.325 120.547 270.596 129.298 270.596C138.934 270.596 133.888 265.325 133.888 265.325C128.632 263.933 128.781 259.639 129.692 255.596L120.713 247.133Z" fill="#E4897B"/>
<path d="M115.326 268.062C116.368 266.273 114.616 261.931 114.616 261.931C114.616 261.931 130.104 257.627 136.437 264.232C137.751 265.596 136.297 267.608 136.297 267.608L115.326 268.062Z" fill="#0B0957"/>
<path opacity="0.1" d="M115.326 268.062C116.368 266.273 114.616 261.931 114.616 261.931C114.616 261.931 130.104 257.627 136.437 264.232C137.751 265.596 136.297 267.608 136.297 267.608L115.326 268.062Z" fill="black"/>
<path d="M89.7027 465.388C88.888 465.388 87.5827 463.889 87.1973 463.328C87.1807 463.301 87.1719 463.269 87.1719 463.236C87.1719 463.203 87.1807 463.171 87.1973 463.144C87.2114 463.117 87.2319 463.095 87.2566 463.079C87.2812 463.064 87.3092 463.056 87.3375 463.057C87.4338 463.057 89.58 463.27 90.167 464.111C90.2308 464.2 90.2764 464.303 90.3006 464.413C90.3248 464.524 90.327 464.638 90.3071 464.75C90.2995 464.894 90.2516 465.031 90.17 465.144C90.0884 465.257 89.9771 465.338 89.8516 465.378L89.7027 465.388ZM87.6703 463.454C88.3098 464.266 89.3348 465.185 89.7728 465.069C89.7728 465.069 89.948 465.02 90.0005 464.711C90.012 464.646 90.0101 464.58 89.995 464.516C89.9798 464.452 89.9517 464.393 89.9129 464.343C89.264 463.801 88.4831 463.484 87.6703 463.434V463.454Z" fill="#0B0957"/>
<path d="M87.7668 463.434C87.6095 463.452 87.451 463.452 87.2937 463.434C87.266 463.432 87.2396 463.421 87.2178 463.402C87.1959 463.383 87.1797 463.357 87.1711 463.328C87.1588 463.301 87.1523 463.271 87.1523 463.241C87.1523 463.211 87.1588 463.181 87.1711 463.154C87.2324 463.096 88.5201 461.616 89.4925 461.616C89.6088 461.613 89.7244 461.638 89.8316 461.688C89.9388 461.738 90.0352 461.812 90.1144 461.906C90.2017 461.987 90.2613 462.098 90.2836 462.221C90.3059 462.344 90.2895 462.472 90.2371 462.583C89.983 463.125 88.6428 463.434 87.7668 463.434ZM87.6529 463.096C88.5289 463.096 89.7991 462.796 90.0093 462.37C90.0093 462.37 90.0706 462.245 89.9305 462.09C89.8795 462.029 89.817 461.981 89.7474 461.949C89.6778 461.917 89.6028 461.903 89.5275 461.906C88.8094 462.088 88.1567 462.502 87.6529 463.096Z" fill="#0B0957"/>
<path d="M147.511 487.342C146.847 487.337 146.184 487.269 145.531 487.139C145.498 487.132 145.469 487.113 145.448 487.085C145.428 487.056 145.416 487.021 145.417 486.984C145.412 486.951 145.416 486.917 145.429 486.886C145.441 486.855 145.461 486.828 145.487 486.81C145.584 486.752 147.826 485.33 148.904 485.659C149.003 485.684 149.098 485.731 149.181 485.798C149.263 485.864 149.333 485.949 149.385 486.046C149.454 486.154 149.491 486.282 149.491 486.414C149.491 486.545 149.454 486.674 149.385 486.781C149.131 487.216 148.334 487.342 147.511 487.342ZM146.03 486.887C147.222 487.081 148.851 487.071 149.149 486.607C149.193 486.549 149.228 486.443 149.149 486.239C149.082 486.119 148.975 486.032 148.851 485.998C148.168 485.804 146.81 486.443 146.03 486.887Z" fill="#0B0957"/>
<path d="M145.565 487.149C145.537 487.158 145.506 487.158 145.478 487.149C145.454 487.132 145.435 487.107 145.424 487.077C145.413 487.048 145.41 487.015 145.417 486.984C145.476 485.978 145.826 485.018 146.415 484.247C146.534 484.134 146.674 484.05 146.825 484.002C146.977 483.953 147.135 483.941 147.291 483.967C147.712 483.967 147.834 484.247 147.861 484.431C147.974 485.234 146.441 486.771 145.662 487.158L145.565 487.149ZM147.133 484.247C146.941 484.246 146.754 484.321 146.608 484.46C146.113 485.071 145.806 485.84 145.732 486.655C146.52 486.123 147.571 484.924 147.484 484.441C147.484 484.441 147.484 484.276 147.186 484.247H147.133Z" fill="#0B0957"/>
<path d="M138.487 486.974H144.926L145.565 470.523H139.127L138.487 486.974Z" fill="#E4897B"/>
<path d="M81.1533 458.734L86.532 462.622L98.4105 451.548L93.0231 447.651L81.1533 458.734Z" fill="#E4897B"/>
<path d="M87.4164 462.254L81.8276 457.196C81.7288 457.107 81.605 457.058 81.4772 457.058C81.3494 457.058 81.2255 457.107 81.1268 457.196L76.519 461.191C76.4077 461.288 76.3178 461.413 76.256 461.554C76.1942 461.696 76.1621 461.851 76.1621 462.008C76.1621 462.165 76.1942 462.32 76.256 462.461C76.3178 462.603 76.4077 462.727 76.519 462.825C78.4988 464.556 79.5412 465.291 82.0028 467.516C83.5182 468.879 87.2588 473.057 89.3699 474.943C91.4811 476.829 93.417 474.798 92.7162 473.821C89.5714 469.421 88.3362 465.659 87.9771 463.328C87.915 462.907 87.7156 462.525 87.4164 462.254Z" fill="#263238"/>
<path d="M144.881 486.152H137.873C137.746 486.153 137.622 486.201 137.522 486.289C137.421 486.376 137.351 486.499 137.321 486.636L136.051 492.951C136.019 493.105 136.019 493.264 136.051 493.417C136.083 493.57 136.147 493.713 136.236 493.835C136.325 493.957 136.439 494.055 136.568 494.121C136.697 494.188 136.838 494.221 136.98 494.218C139.511 494.17 143.173 494.006 146.362 494.006C150.085 494.006 153.308 494.228 157.671 494.228C160.299 494.228 161.052 491.278 159.94 491.017C154.912 489.799 150.794 489.673 146.449 486.704C145.983 486.363 145.44 486.172 144.881 486.152Z" fill="#263238"/>
<path d="M106.574 267.443C100.994 270.345 97.8145 289.784 97.8145 289.784L111.454 295.79C113.45 290.408 115.064 284.863 116.281 279.204C118.155 270.248 112.286 264.445 106.574 267.443Z" fill="#263238"/>
<path d="M113.812 278.401C110.439 282.173 108.897 289.562 108.223 294.368L111.49 295.81C113.43 290.58 115.011 285.197 116.221 279.707C115.931 277.656 115.213 276.834 113.812 278.401Z" fill="#203048"/>
<path d="M143.787 267.308C143.787 267.308 150.637 275.857 144.172 328.721H109.754C109.518 322.919 112.838 294.436 107.739 266.95C111.543 266.136 115.391 265.6 119.259 265.345C124.131 265.025 129.016 265.025 133.888 265.345C137.228 265.716 140.538 266.372 143.787 267.308Z" fill="#263238"/>
<path d="M146.933 287.831L141.134 276.796C140.014 281.944 139.557 287.241 139.776 292.531C139.933 296.322 143.078 310.365 145.908 312.415C146.659 304.248 147.001 296.04 146.933 287.831Z" fill="#203048"/>
<path d="M147.738 274.861C148.614 279.562 149.49 284.378 150.427 289.098C151.364 293.817 152.337 298.556 153.467 303.131C153.756 304.262 154.027 305.423 154.343 306.506L154.579 307.338L154.693 307.754V307.705C154.632 307.618 154.562 307.609 154.614 307.705C154.974 308.139 155.435 308.457 155.946 308.624C156.774 308.964 157.627 309.226 158.495 309.408C162.637 310.132 166.83 310.433 171.022 310.307L171.854 315.568C170.68 315.984 169.585 316.284 168.429 316.584C167.273 316.884 166.134 317.135 164.969 317.328C162.558 317.772 160.114 317.953 157.672 317.87C156.314 317.83 154.964 317.635 153.642 317.29C151.962 316.884 150.382 316.075 149.017 314.92C148.125 314.125 147.389 313.138 146.853 312.019C146.713 311.729 146.59 311.4 146.476 311.119L146.319 310.665L145.995 309.698C145.548 308.469 145.18 307.261 144.777 306.052C143.296 301.216 142.061 296.332 140.975 291.457C139.889 286.583 138.952 281.718 138.172 276.718L147.738 274.861Z" fill="#E4897B"/>
<path d="M135.193 272.492C133.38 278.981 140.729 298.334 140.729 298.334L155.367 294.272C155.367 294.272 154.807 284.214 151.469 276.235C146.441 264.203 137.366 264.706 135.193 272.492Z" fill="#263238"/>
<path d="M170.9 310.307L178.188 310.104L174.684 318.479C174.684 318.479 171.715 318.915 169.28 314.495L166.713 311.11L169.665 310.462C170.071 310.367 170.485 310.316 170.9 310.307Z" fill="#E4897B"/>
<path d="M182.787 311.661L178.617 318.605L174.684 318.479L178.188 310.104L182.787 311.661Z" fill="#E4897B"/>
<path d="M145.565 470.523L145.233 479.005H138.794L139.127 470.523H145.565Z" fill="#CE6F64"/>
<path d="M93.0227 447.651L98.4101 451.548L92.2781 457.254L86.8994 453.366L93.0227 447.651Z" fill="#CE6F64"/>
<path d="M121.117 241.601C121.502 248.632 121.406 252.781 124.621 256.389C129.456 261.834 137.332 258.613 138.856 251.553C140.231 245.228 139.373 234.783 133.135 231.978C131.759 231.365 130.264 231.148 128.791 231.347C127.318 231.546 125.915 232.156 124.714 233.117C123.512 234.079 122.552 235.363 121.923 236.847C121.294 238.33 121.016 239.967 121.117 241.601Z" fill="#E4897B"/>
<path d="M113.618 240.363C115.203 246.776 118.935 254.165 123.762 254.638C129.754 255.219 132.461 248.381 133.249 241.321C136.841 238.603 134.957 235.615 138.558 235.238C143.183 234.754 141.702 225.411 135.614 223.912C135.614 223.912 137.655 228.119 133.372 225.992C129.298 223.854 124.772 222.988 120.284 223.487C120.284 223.487 125.75 226.504 120.407 227.849C115.063 229.193 113.469 232.829 115.93 235.025C115.93 235.035 112.575 236.147 113.618 240.363Z" fill="#263238"/>
<path d="M129.596 242.772C129.713 244.519 130.351 246.175 131.409 247.482C132.81 249.193 134.273 248.13 134.519 246.05C134.746 244.184 134.282 241.04 132.565 240.093C130.848 239.145 129.482 240.663 129.596 242.772Z" fill="#E4897B"/>
<path d="M131.96 328.721C131.96 328.721 138.232 378.868 133.291 398.965C125.46 430.784 95.5181 457.641 95.5181 457.641L85.3652 450.291C85.3652 450.291 110.866 427.611 113.984 400.967C116.787 377.049 109.753 348.122 109.753 328.712L131.96 328.721Z" fill="#0B0957"/>
<path opacity="0.1" d="M131.96 328.721C131.96 328.721 138.232 378.868 133.291 398.965C125.46 430.784 95.5181 457.641 95.5181 457.641L85.3652 450.291C85.3652 450.291 110.866 427.611 113.984 400.967C116.787 377.049 109.753 348.122 109.753 328.712L131.96 328.721Z" fill="black"/>
<path d="M134.553 357.387C132.883 355.275 131.045 353.333 129.061 351.585C130.129 367.862 131.005 391.972 130.033 409.1C131.34 405.817 132.429 402.433 133.292 398.974C135.701 389.158 135.447 372.204 134.553 357.387Z" fill="#0B0957"/>
<path opacity="0.3" d="M134.553 357.387C132.883 355.275 131.045 353.333 129.061 351.585C130.129 367.862 131.005 391.972 130.033 409.1C131.34 405.817 132.429 402.433 133.292 398.974C135.701 389.158 135.447 372.204 134.553 357.387Z" fill="black"/>
<path d="M99.6113 455.136C99.6551 455.136 95.6781 458.038 95.6781 458.038L84.5879 450.01L88.0919 446.809L99.6113 455.136Z" fill="#0B0957"/>
<path opacity="0.3" d="M99.6113 455.136C99.6551 455.136 95.6781 458.038 95.6781 458.038L84.5879 450.01L88.0919 446.809L99.6113 455.136Z" fill="black"/>
<path d="M144.172 328.721C144.172 328.721 153.861 374.08 154.544 395.754C155.315 420.048 147.632 477.361 147.632 477.361H136.726C136.726 477.361 135.386 419.604 134.904 397.475C134.37 373.345 121.545 328.721 121.545 328.721H144.172Z" fill="#0B0957"/>
<path opacity="0.1" d="M144.172 328.721C144.172 328.721 153.861 374.08 154.544 395.754C155.315 420.048 147.632 477.361 147.632 477.361H136.726C136.726 477.361 135.386 419.604 134.904 397.475C134.37 373.345 121.545 328.721 121.545 328.721H144.172Z" fill="black"/>
<path d="M149.726 472.574C149.779 472.574 149.113 477.564 149.113 477.564H135.85L135.491 473.106L149.726 472.574Z" fill="#0B0957"/>
<path opacity="0.3" d="M149.726 472.574C149.779 472.574 149.113 477.564 149.113 477.564H135.85L135.491 473.106L149.726 472.574Z" fill="black"/>
<g filter="url(#filter0_d)">
<path d="M212.196 139.28V119.408L257.7 54.32H285.204V117.968H297.012V139.28H285.204V158H260.58V139.28H212.196ZM262.308 81.392L238.116 117.968H262.308V81.392Z" fill="#0B0957"/>
</g>
<g filter="url(#filter1_d)">
<path d="M206.651 454.445V434.573L252.155 369.485H279.659V433.133H291.467V454.445H279.659V473.165H255.035V454.445H206.651ZM256.763 396.557L232.571 433.133H256.763V396.557Z" fill="#0B0957"/>
</g>
<defs>
<filter id="filter0_d" x="208.195" y="54.32" width="92.8164" height="111.68" filterUnits="userSpaceOnUse" color-interpolation-filters="sRGB">
<feFlood flood-opacity="0" result="BackgroundImageFix"/>
<feColorMatrix in="SourceAlpha" type="matrix" values="0 0 0 0 0 0 0 0 0 0 0 0 0 0 0 0 0 0 127 0" result="hardAlpha"/>
<feOffset dy="4"/>
<feGaussianBlur stdDeviation="2"/>
<feComposite in2="hardAlpha" operator="out"/>
<feColorMatrix type="matrix" values="0 0 0 0 0 0 0 0 0 0 0 0 0 0 0 0 0 0 0.25 0"/>
<feBlend mode="normal" in2="BackgroundImageFix" result="effect1_dropShadow"/>
<feBlend mode="normal" in="SourceGraphic" in2="effect1_dropShadow" result="shape"/>
</filter>
<filter id="filter1_d" x="202.65" y="369.485" width="92.8164" height="111.68" filterUnits="userSpaceOnUse" color-interpolation-filters="sRGB">
<feFlood flood-opacity="0" result="BackgroundImageFix"/>
<feColorMatrix in="SourceAlpha" type="matrix" values="0 0 0 0 0 0 0 0 0 0 0 0 0 0 0 0 0 0 127 0" result="hardAlpha"/>
<feOffset dy="4"/>
<feGaussianBlur stdDeviation="2"/>
<feComposite in2="hardAlpha" operator="out"/>
<feColorMatrix type="matrix" values="0 0 0 0 0 0 0 0 0 0 0 0 0 0 0 0 0 0 0.25 0"/>
<feBlend mode="normal" in2="BackgroundImageFix" result="effect1_dropShadow"/>
<feBlend mode="normal" in="SourceGraphic" in2="effect1_dropShadow" result="shape"/>
</filter>
</defs>
</svg>
